<?xml version="1.0" encoding="UTF-8" standalone="no"?><!DOCTYPE svg PUBLIC "-//W3C//DTD SVG 1.1//EN" "http://www.w3.org/Graphics/SVG/1.1/DTD/svg11.dtd"><svg width="100%" height="100%" viewBox="0 0 31 40" version="1.1" xmlns="http://www.w3.org/2000/svg" xmlns:xlink="http://www.w3.org/1999/xlink" xml:space="preserve" xmlns:serif="http://www.serif.com/" style="fill-rule:evenodd;clip-rule:evenodd;stroke-linejoin:round;stroke-miterlimit:2;"><path d="M0.116,39.447c2.073,2.221 19.872,-3.505 20.318,-17.471c0.153,-4.857 -2.18,-6.533 -3.554,-6.533c-0.408,0.005 -0.81,0.089 -1.185,0.248c-7.542,3.032 -16.552,22.08 -15.579,23.756Zm20.386,-28.865c0.026,0.246 0.123,0.479 0.278,0.671c0.156,0.192 0.364,0.335 0.599,0.411c0.235,0.077 0.487,0.083 0.726,0.019c0.239,-0.064 0.454,-0.195 0.619,-0.379c0.166,-0.184 0.275,-0.411 0.314,-0.655c0.038,-0.244 0.006,-0.495 -0.094,-0.721c-0.101,-0.225 -0.264,-0.418 -0.471,-0.552c-0.207,-0.135 -0.449,-0.208 -0.696,-0.208c-0.232,0.028 -0.459,0.092 -0.672,0.189c0,0 1.803,-3.482 4.722,-2.658c4.054,1.14 5.897,13.615 -5.235,25.477c-0.038,0.04 -0.061,0.092 -0.063,0.148c-0.003,0.055 0.015,0.11 0.05,0.153c0.034,0.044 0.083,0.073 0.138,0.083c0.055,0.01 0.111,-0 0.159,-0.029c8.334,-5.726 13.488,-19.822 7.582,-27.629c0.585,-0.956 1.113,-3.605 0.225,-4.902c-0.997,0.976 -2.05,1.894 -3.153,2.748c-0,0 -3.726,-1.933 -7.357,0.167c0.186,-0.801 0.052,-1.644 -0.374,-2.347c-1.843,2.937 -2.338,5.609 -1.154,9.118c-0.206,0.383 -0.281,0.823 -0.216,1.252c0.37,0.843 0.901,0.766 1.163,0.699c0.524,0.776 1.096,1.519 1.711,2.225c0.532,-1.608 0.983,-2.847 1.199,-3.28Z" style="fill:url(#_Linear1);"/><defs><linearGradient id="_Linear1" x1="0" y1="0" x2="1" y2="0" gradientUnits="userSpaceOnUse" gradientTransform="matrix(34.0091,-34.0136,34.0136,34.0091,-1.61829,37.7213)"><stop offset="0" style="stop-color:#f3f3f3;stop-opacity:1"/><stop offset="1" style="stop-color:#54585f;stop-opacity:1"/></linearGradient></defs></svg>