<?xml version="1.0" encoding="UTF-8" standalone="no"?>
<!DOCTYPE svg PUBLIC "-//W3C//DTD SVG 1.1//EN" "http://www.w3.org/Graphics/SVG/1.1/DTD/svg11.dtd">
<svg width="100%" height="100%" viewBox="0 0 70 91" version="1.1" xmlns="http://www.w3.org/2000/svg" xmlns:xlink="http://www.w3.org/1999/xlink" xml:space="preserve" xmlns:serif="http://www.serif.com/" style="fill-rule:evenodd;clip-rule:evenodd;stroke-linejoin:round;stroke-miterlimit:2;">
    <g id="Ebene_1">
    </g>
    <g transform="matrix(1,0,0,1,-0.0355303,-2.9)">
        <g id="Ebene_2">
            <path d="M0.2,92.2C4.9,97.2 45.1,84.3 46.1,52.8C46.4,41.8 41.2,38 38.1,38C35,38 36.4,38.2 35.4,38.6C18.3,45.4 -2,88.4 0.2,92.2ZM46.2,27C46.4,28.5 47.7,29.6 49.3,29.5C50.8,29.5 52,28.2 52,26.7C52,25.1 50.7,23.7 49.1,23.7C47.5,23.7 47.6,24.1 47.6,24.1C47.6,24.1 51.7,16.2 58.3,18.1C67.5,20.7 71.6,48.8 46.5,75.6C46,76.1 46.6,76.8 47.1,76.4C65.9,63.5 77.6,31.6 64.2,14C65.5,11.8 66.7,5.9 64.7,2.9C62.3,5.2 59.9,7.3 57.5,9.1C57.3,9.1 49.1,4.7 40.9,9.5C41.3,7.8 41.1,6 40.1,4.2C35.9,10.8 34.8,16.9 37.5,24.8C37.5,24.8 36.6,26.4 37,27.6C37.8,29.5 39,29.3 39.6,29.2C40.6,30.9 43.4,34.1 43.5,34.2C44.8,30.6 45.8,27.8 46.3,26.8L46.2,27Z" style="fill:url(#_Linear1);"/>
        </g>
    </g>
    <defs>
        <linearGradient id="_Linear1" x1="0" y1="0" x2="1" y2="0" gradientUnits="userSpaceOnUse" gradientTransform="matrix(78.9,-73.6,73.6,78.9,-5.3,86.3)"><stop offset="0" style="stop-color:rgb(216,217,223);stop-opacity:1"/><stop offset="0.1" style="stop-color:rgb(207,208,214);stop-opacity:1"/><stop offset="0.4" style="stop-color:rgb(183,185,191);stop-opacity:1"/><stop offset="0.7" style="stop-color:rgb(145,147,153);stop-opacity:1"/><stop offset="1" style="stop-color:rgb(93,95,101);stop-opacity:1"/><stop offset="1" style="stop-color:rgb(90,92,99);stop-opacity:1"/></linearGradient>
    </defs>
</svg>
